# xmcd CD database file
#
# Track frame offsets:
#	150
#	16445
#	35340
#	59920
#	78225
#	100055
#	120637
#	139717
#	156262
#	176717
#
# Disc length: 2638 seconds
#
# Revision: 0
# Processed by: cddbd v1.5.1PL0 Copyright (c) Steve Scherf et al.
# Submitted via: CDex 1.51
#
DISCID=820a4c0a
DTITLE=岡本麻弥 - Ever Blue 〜 風のかたち 〜
DYEAR=1994
DGENRE=Samba
TTITLE0=月光夜
TTITLE1=On The Road
TTITLE2=ウロボロスの湖
TTITLE3=Little Roses
TTITLE4=楽園
TTITLE5=それから…
TTITLE6=あなたと出逢った不思議
TTITLE7=Siesta
TTITLE8=夜の森
TTITLE9=Ever Blue
EXTD=YEAR: 1994
EXTT0=
EXTT1=
EXTT2=
EXTT3=
EXTT4=
EXTT5=
EXTT6=
EXTT7=
EXTT8=
EXTT9=
PLAYORDER=
